<?xml version="1.0" encoding="UTF-8" standalone="no"?>
<!-- Created with Inkscape (http://www.inkscape.org/) -->

<svg
   xmlns:dc="http://purl.org/dc/elements/1.1/"
   xmlns:cc="http://creativecommons.org/ns#"
   xmlns:rdf="http://www.w3.org/1999/02/22-rdf-syntax-ns#"
   xmlns:svg="http://www.w3.org/2000/svg"
   xmlns="http://www.w3.org/2000/svg"
   xmlns:sodipodi="http://sodipodi.sourceforge.net/DTD/sodipodi-0.dtd"
   xmlns:inkscape="http://www.inkscape.org/namespaces/inkscape"
   id="svg3103"
   version="1.1"
   inkscape:version="0.48.4 r9939"
   width="222.4625"
   height="120"
   xml:space="preserve"
   sodipodi:docname="SMART-logo-Registered.eps"><metadata
     id="metadata3109"><rdf:RDF><cc:Work
         rdf:about=""><dc:format>image/svg+xml</dc:format><dc:type
           rdf:resource="http://purl.org/dc/dcmitype/StillImage" /><dc:title></dc:title></cc:Work></rdf:RDF></metadata><defs
     id="defs3107" /><sodipodi:namedview
     pagecolor="#ffffff"
     bordercolor="#666666"
     borderopacity="1"
     objecttolerance="10"
     gridtolerance="10"
     guidetolerance="10"
     inkscape:pageopacity="0"
     inkscape:pageshadow="2"
     inkscape:window-width="958"
     inkscape:window-height="1057"
     id="namedview3105"
     showgrid="false"
     inkscape:zoom="3.6051021"
     inkscape:cx="111.23125"
     inkscape:cy="60"
     inkscape:window-x="960"
     inkscape:window-y="0"
     inkscape:window-maximized="0"
     inkscape:current-layer="g3111" /><g
     id="g3111"
     inkscape:groupmode="layer"
     inkscape:label="ink_ext_XXXXXX"
     transform="matrix(1.25,0,0,-1.25,0,120)"><g
       id="g3113"
       transform="scale(0.1,0.1)"><path
         d="m 190.09,184.375 -145.9884,0 0,-55.422 133.5194,0 c 19.492,0 32.805,-3.492 39.914,-10.457 7.106,-6.992 10.668,-20.3202 10.668,-40.0312 l 0,-25.5937 c 0,-19.707 -3.476,-33.0352 -10.433,-40.0313 C 210.82,5.87891 197.426,2.37109 177.621,2.37109 l -126.5663,0 C 31.2305,2.37109 17.7656,5.87891 10.6602,12.8398 3.55469,19.8359 0,33.1641 0,52.8711 l 0.390625,13.4687 35.550775,0.0782 0,-31.7696 157.0196,0 0,60.0782 -134.0001,0 c -19.6601,0 -33,3.4882 -40.0351,10.4764 -7.0274,6.965 -10.54299,20.293 -10.54299,40 l 0,20.207 c 0,19.531 3.51559,32.86 10.54299,40.012 7.0351,7.137 20.375,10.719 40.0351,10.719 l 115.7811,0 c 19.328,0 32.68,-3.465 40.043,-10.348 7.34,-6.898 11.004,-19.047 11.004,-36.449 l 0.418,-13.086 -36.117,0.043 0,28.074"
         style="fill:#5e6061;fill-opacity:1;fill-rule:nonzero;stroke:none"
         id="path3115" /><path
         d="m 350.684,176.492 c 0,-3.125 0.168,-7.383 0.5,-12.801 0.308,-8.886 0.464,-14.531 0.464,-17.011 l 0,-144.30891 -32.351,0 0,213.76991 32.351,0 103.555,-138.6527 95.164,138.6527 36.442,0 0,-213.76991 -36.442,0 0,144.30891 c 0,5.261 0.199,10.34 0.602,15.285 0.402,4.918 0.996,9.668 1.804,14.293 -2.246,-6.738 -4.558,-12.684 -6.957,-17.871 -2.398,-5.172 -4.632,-9.071 -6.711,-11.707 l -80.062,-110.5589 -10.313,0 -82.937,109.5699 c -2.879,3.782 -5.594,8.215 -8.148,13.321 -2.555,5.09 -4.879,10.918 -6.961,17.48"
         style="fill:#5e6061;fill-opacity:1;fill-rule:nonzero;stroke:none"
         id="path3117" /><path
         d="m 1200.59,182.5 -110.74,0 0,-68.977 110.74,0 c 8.79,0 14.7,1.477 17.75,4.438 3.02,2.965 4.55,8.699 4.55,17.242 l 0,25.606 c 0,7.89 -1.61,13.457 -4.8,16.75 -3.2,3.289 -9.03,4.941 -17.5,4.941 z M 1050.53,0 l 0,213.758 167.31,0 c 15.52,0 26.67,-3.231 33.46,-9.727 6.8,-6.48 10.18,-17.019 10.18,-31.648 l 0,-47.766 c 0,-14.449 -3.38,-24.8709 -10.18,-31.2693 -6.79,-6.4141 -17.94,-9.6172 -33.46,-9.6172 l -27.56,0 L 1282.11,0 l -52.51,0 -82.93,83.7305 -56.82,0 0,-83.7305 -39.32,0"
         style="fill:#5e6061;fill-opacity:1;fill-rule:nonzero;stroke:none"
         id="path3119" /><path
         d="m 1461.39,182.004 0,-182.004 -39.07,0 0,182.004 -98.29,0 0,31.754 236.13,0 0,-31.754 -98.77,0"
         style="fill:#5e6061;fill-opacity:1;fill-rule:nonzero;stroke:none"
         id="path3121" /><path
         d="m 977.883,0.554688 -74.555,0 L 815.906,152.961 725.969,0.554688 l -72.61,0 L 815.762,280.82 977.883,0.554688"
         style="fill:#6bb0d3;fill-opacity:1;fill-rule:nonzero;stroke:none"
         id="path3123" /><path
         d="m 654.059,960.027 74.07,0 86.871,-151.425 89.348,151.425 72.156,0 L 815.137,681.563 654.059,960.027"
         style="fill:#692071;fill-opacity:1;fill-rule:nonzero;stroke:none"
         id="path3125" /><path
         d="m 472.422,667.109 37.055,62 174.554,0 -86.457,153.098 36.082,62.488 160.477,-277.586 -321.711,0"
         style="fill:#e3372b;fill-opacity:1;fill-rule:nonzero;stroke:none"
         id="path3127" /><path
         d="m 1159.17,642.051 -37.03,-61.953 -174.581,0 86.461,-154.375 -36.082,-62.493 -160.465,278.821 321.697,0"
         style="fill:#7ac531;fill-opacity:1;fill-rule:nonzero;stroke:none"
         id="path3129" /><path
         d="m 997.727,945.828 37.063,-64.148 -87.727,-152.571 175.817,0 36.08,-62 -321.843,0 160.61,278.719"
         style="fill:#e76e19;fill-opacity:1;fill-rule:nonzero;stroke:none"
         id="path3131" /><path
         d="m 633.559,363.309 -37.036,64.171 87.707,152.618 -175.824,0 -36.062,61.953 321.828,0 -160.613,-278.742"
         style="fill:#efad1a;fill-opacity:1;fill-rule:nonzero;stroke:none"
         id="path3133" /><path
         d="m 1678.13,199.434 c 3.06,0 5.96,0.109 8.7,0.3 2.73,0.207 5.16,0.762 7.3,1.7 2.13,0.937 3.83,2.367 5.1,4.296 1.26,1.938 1.89,4.641 1.89,8.11 0,2.926 -0.56,5.262 -1.7,7 -1.13,1.726 -2.59,3.066 -4.39,3.996 -1.81,0.934 -3.87,1.57 -6.2,1.902 -2.34,0.332 -4.64,0.496 -6.91,0.496 l -17.99,0 0,-27.8 14.2,0 z m 6,38.796 c 10.39,0 18.1,-2.058 23.1,-6.187 5,-4.145 7.5,-10.402 7.5,-18.813 0,-7.859 -2.2,-13.632 -6.6,-17.292 -4.4,-3.672 -9.87,-5.833 -16.4,-6.504 l 25,-38.594 -14.6,0 -23.8,37.598 -14.4,0 0,-37.598 -13.61,0 0,87.39 33.81,0 z m -61.71,-68.894 c 3.14,-7.805 7.47,-14.57 13.01,-20.305 5.53,-5.73 12.06,-10.23 19.6,-13.496 7.53,-3.269 15.69,-4.902 24.49,-4.902 8.67,0 16.74,1.633 24.21,4.902 7.46,3.266 13.97,7.766 19.49,13.496 5.54,5.735 9.88,12.5 13.01,20.305 3.13,7.801 4.7,16.297 4.7,25.5 0,8.934 -1.57,17.262 -4.7,25 -3.13,7.73 -7.47,14.43 -13.01,20.105 -5.52,5.664 -12.03,10.125 -19.49,13.399 -7.47,3.262 -15.54,4.89 -24.21,4.89 -8.8,0 -16.96,-1.628 -24.49,-4.89 -7.54,-3.274 -14.07,-7.735 -19.6,-13.399 -5.54,-5.675 -9.87,-12.375 -13.01,-20.105 -3.13,-7.738 -4.7,-16.066 -4.7,-25 0,-9.203 1.57,-17.699 4.7,-25.5 z m -12.29,54.902 c 4,9.063 9.43,16.934 16.3,23.602 6.86,6.664 14.86,11.894 24,15.695 9.13,3.801 18.83,5.703 29.09,5.703 10.27,0 19.93,-1.902 29.01,-5.703 9.06,-3.801 17,-9.031 23.79,-15.695 6.81,-6.668 12.2,-14.539 16.21,-23.602 4,-9.07 5.99,-18.867 5.99,-29.402 0,-10.805 -1.99,-20.766 -5.99,-29.895 -4.01,-9.14 -9.4,-17.07 -16.21,-23.808 -6.79,-6.731 -14.73,-11.961 -23.79,-15.695 -9.08,-3.727 -18.74,-5.602 -29.01,-5.602 -10.26,0 -19.96,1.875 -29.09,5.602 -9.14,3.734 -17.14,8.964 -24,15.695 -6.87,6.738 -12.3,14.668 -16.3,23.808 -4.01,9.129 -6,19.09 -6,29.895 0,10.535 1.99,20.332 6,29.402"
         style="fill:#5e6061;fill-opacity:1;fill-rule:nonzero;stroke:none"
         id="path3135" /></g></g></svg>