<svg id="Layer_1" data-name="Layer 1"
    xmlns="http://www.w3.org/2000/svg" viewBox="0 0 225.1 117.07">
    <defs>
        <style>.cls-1{fill:#676868;}.cls-2{fill:#64aed0;}.cls-3{fill:#722772;}.cls-4{fill:#e24a31;}.cls-5{fill:#89bf44;}.cls-6{fill:#e77d26;}.cls-7{fill:#f1b42a;}</style>
    </defs>
    <title>logo</title>
    <path class="cls-1" d="M24.39,94.59H5.66v6.76H22.79q3.75,0,5.12,1.28t1.37,4.88v3.12q0,3.61-1.34,4.88t-5.15,1.28H6.55q-3.82,0-5.18-1.28T0,110.63L0,109H4.61v3.88H24.76v-7.33H7.56q-3.78,0-5.14-1.28T1.08,99.37V96.9q0-3.57,1.35-4.88t5.14-1.31H22.42q3.72,0,5.14,1.26T29,96.42L29,98H24.39V94.59Z"/>
    <path class="cls-1" d="M45,95.55c0,0.38,0,.9.06,1.56,0,1.08.06,1.77,0.06,2.08v17.6H41V90.72h4.15L58.4,107.62,70.61,90.72h4.67v26.07H70.61V99.19c0-.64,0-1.26.08-1.86s0.13-1.18.23-1.74A20.78,20.78,0,0,1,70,97.76a7.26,7.26,0,0,1-.86,1.43L58.89,112.67H57.57L46.93,99.31a10.22,10.22,0,0,1-1-1.62A14.19,14.19,0,0,1,45,95.55"/>
    <path class="cls-1" d="M134.78,117.07V91h21.46a6.29,6.29,0,0,1,4.29,1.19,5,5,0,0,1,1.31,3.86v5.82a4.89,4.89,0,0,1-1.31,3.81,6.35,6.35,0,0,1-4.29,1.17h-3.54l11.78,10.21h-6.74l-10.64-10.21h-7.29v10.21h-5ZM154,94.82H139.82v8.41H154a3.47,3.47,0,0,0,2.28-.54,2.87,2.87,0,0,0,.58-2.1V97.46a2.79,2.79,0,0,0-.62-2,3.21,3.21,0,0,0-2.24-.6"/>
    <polygon class="cls-1" points="187.49 94.88 187.49 117.07 182.48 117.07 182.48 94.88 169.87 94.88 169.87 91 200.16 91 200.16 94.88 187.49 94.88"/>
    <polygon class="cls-2" points="125.46 117.01 115.89 117.01 104.68 98.42 93.14 117.01 83.82 117.01 104.66 82.83 125.46 117.01"/>
    <polygon class="cls-3" points="83.91 0 93.42 0 104.56 18.47 116.03 0 125.28 0 104.58 33.96 83.91 0"/>
    <polygon class="cls-4" points="60.61 35.72 65.37 28.16 87.76 28.16 76.67 9.49 81.3 1.87 101.89 35.72 60.61 35.72"/>
    <polygon class="cls-5" points="148.72 38.78 143.97 46.33 121.57 46.33 132.66 65.16 128.03 72.78 107.44 38.78 148.72 38.78"/>
    <polygon class="cls-6" points="128 1.73 132.76 9.55 121.5 28.16 144.06 28.16 148.69 35.72 107.4 35.72 128 1.73"/>
    <polygon class="cls-7" points="81.28 72.77 76.53 64.94 87.78 46.33 65.23 46.33 60.6 38.78 101.89 38.78 81.28 72.77"/>
    <path class="cls-1" d="M206.57,89.73a9,9,0,0,1,2.09-2.88,9.8,9.8,0,0,1,3.08-1.91,10.34,10.34,0,0,1,7.45,0,9.69,9.69,0,0,1,3.05,1.91,9.16,9.16,0,0,1,2.08,2.88,8.39,8.39,0,0,1,.77,3.59,8.59,8.59,0,0,1-.77,3.64,9.27,9.27,0,0,1-2.08,2.9,9.39,9.39,0,0,1-3.05,1.91,10.49,10.49,0,0,1-7.45,0,9.5,9.5,0,0,1-3.08-1.91,9.15,9.15,0,0,1-2.09-2.9,8.59,8.59,0,0,1-.77-3.64,8.4,8.4,0,0,1,.77-3.59m1.58,6.7a7.54,7.54,0,0,0,1.67,2.48,7.76,7.76,0,0,0,2.51,1.65,8.14,8.14,0,0,0,3.14.6,8,8,0,0,0,3.11-.6,7.8,7.8,0,0,0,2.5-1.65,7.56,7.56,0,0,0,1.67-2.48,7.91,7.91,0,0,0,.6-3.11,7.69,7.69,0,0,0-.6-3,7.48,7.48,0,0,0-1.67-2.45,7.91,7.91,0,0,0-2.5-1.63,8,8,0,0,0-3.11-.6,8.19,8.19,0,0,0-3.14.6,7.87,7.87,0,0,0-2.51,1.63,7.47,7.47,0,0,0-1.67,2.45,7.69,7.69,0,0,0-.6,3,7.91,7.91,0,0,0,.6,3.11m7.92-8.4a4.78,4.78,0,0,1,3,.76,2.74,2.74,0,0,1,1,2.29,2.53,2.53,0,0,1-.85,2.11A3.92,3.92,0,0,1,217,94l3.21,4.71h-1.87l-3.05-4.58h-1.85v4.58h-1.75V88h4.34Zm-0.77,4.73c0.39,0,.76,0,1.12,0a3,3,0,0,0,.94-0.21A1.45,1.45,0,0,0,218,92a1.72,1.72,0,0,0,.24-1,1.48,1.48,0,0,0-.22-0.85,1.45,1.45,0,0,0-.56-0.49,2.59,2.59,0,0,0-.79-0.23,6.38,6.38,0,0,0-.89-0.06h-2.31v3.39h1.82Z"/>
</svg>